<svg width="33" height="32" viewBox="0 0 33 32" fill="none" xmlns="http://www.w3.org/2000/svg">
<g clip-path="url(#clip0_924_9637)">
<path fill-rule="evenodd" clip-rule="evenodd" d="M16.29 7.62939e-06C12.4189 -0.00392687 8.6729 1.37084 5.72333 3.87794C2.77376 6.38504 0.813405 9.8606 0.193593 13.6818C-0.426219 17.5029 0.335024 21.4199 2.34089 24.7308C4.34675 28.0417 7.46613 30.5301 11.14 31.75C11.95 31.9 12.25 31.39 12.25 30.96C12.25 30.53 12.25 29.55 12.25 28.19C7.72 29.19 6.76 26.01 6.76 26.01C6.45815 25.0244 5.81688 24.1777 4.95 23.62C3.48 22.62 5.07 22.62 5.07 22.62C5.58529 22.6928 6.07727 22.8819 6.50867 23.173C6.94007 23.464 7.2996 23.8494 7.56 24.3C7.78126 24.7012 8.07956 25.0548 8.43779 25.3404C8.79603 25.626 9.20715 25.8381 9.64754 25.9645C10.0879 26.0908 10.5489 26.129 11.0041 26.0767C11.4593 26.0245 11.8997 25.8829 12.3 25.66C12.3628 24.8374 12.7174 24.0642 13.3 23.48C9.67999 23.07 5.87999 21.67 5.87999 15.43C5.85514 13.813 6.45307 12.2483 7.54999 11.06C7.06046 9.65418 7.11758 8.11567 7.71 6.75001C7.71 6.75001 9.07999 6.31001 12.19 8.42001C14.8606 7.68677 17.6794 7.68677 20.35 8.42001C23.46 6.31001 24.82 6.75001 24.82 6.75001C25.4186 8.11372 25.4793 9.65338 24.99 11.06C26.0869 12.2483 26.6849 13.813 26.66 15.43C26.66 21.69 22.85 23.06 19.22 23.43C19.6092 23.8213 19.9098 24.2917 20.1013 24.8093C20.2928 25.3269 20.3708 25.8796 20.33 26.43C20.33 28.61 20.33 30.37 20.33 30.9C20.33 31.43 20.62 31.84 21.45 31.69C25.1123 30.4586 28.2181 27.9663 30.2134 24.6576C32.2088 21.3489 32.9639 17.439 32.3441 13.6252C31.7243 9.81145 29.7698 6.34187 26.8294 3.83533C23.889 1.32878 20.1538 -0.0517393 16.29 -0.0599976V7.62939e-06Z" fill="#2E2B26"/>
</g>
<defs>
<clipPath id="clip0_924_9637">
<rect width="32.58" height="31.77" fill="white"/>
</clipPath>
</defs>
</svg>
