<svg width="143" height="143" viewBox="0 0 143 143" fill="none" xmlns="http://www.w3.org/2000/svg">
<path d="M132.98 10.0168C119.508 -3.45589 96.1077 -2.7468 71.9986 8.59865C67.0349 6.47138 61.3622 4.34411 56.3986 2.92592C37.2531 -2.7468 21.6531 0.0895604 11.0167 10.0168C1.08947 20.6532 -1.74689 36.2532 3.92584 55.3987C5.34402 60.3623 7.47129 66.035 9.59857 70.9987C-2.45598 95.1077 -2.45598 118.508 11.0167 131.98C18.1077 139.071 36.544 150.417 71.9986 133.399C107.453 149.708 125.889 139.071 132.98 131.98C146.453 118.508 145.744 95.1077 134.399 70.9987C145.744 46.8896 146.453 23.4896 132.98 10.0168ZM20.944 19.9441C25.1986 15.6896 35.1258 10.0168 56.3986 17.8168C49.3077 22.7805 42.2167 28.4532 35.8349 34.835C29.4531 41.9259 23.7804 48.3077 18.8167 55.3987C13.144 39.0896 14.5622 26.3259 20.944 19.9441ZM20.944 122.053C13.8531 114.962 13.144 101.49 18.8167 86.5987C23.7804 93.6896 29.4531 100.78 35.8349 107.162C42.2167 113.544 49.3077 119.217 56.3986 124.18C42.2167 129.144 28.744 129.144 20.944 122.053ZM71.9986 117.09C63.4895 112.126 54.2713 105.035 45.7622 97.235C37.9622 89.435 30.8713 80.2168 25.9077 70.9987C30.8713 62.4896 37.9622 53.2714 45.7622 44.7623C54.2713 36.9623 63.4895 29.8714 71.9986 24.9077C81.2167 29.8714 89.7258 36.9623 98.2349 44.7623C106.744 53.2714 113.126 61.7805 118.089 70.9987C113.126 79.5077 106.035 88.7259 98.2349 97.235C89.7258 105.035 80.5077 112.126 71.9986 117.09ZM123.053 122.053C115.962 129.144 102.489 129.853 87.5986 124.18C94.6895 119.217 101.78 113.544 108.162 107.162C114.544 100.78 120.217 93.6896 125.18 86.5987C130.853 100.78 130.144 114.253 123.053 122.053ZM125.18 55.3987C120.217 48.3077 114.544 41.2168 108.162 34.835C101.78 28.4532 94.6895 22.7805 87.5986 17.8168C107.453 10.0168 118.799 16.3987 123.053 19.9441C130.144 27.7441 130.853 40.5077 125.18 55.3987Z" fill="#A7692D"/>
</svg>
