<svg xmlns="http://www.w3.org/2000/svg" viewBox="0 0 100 100" width="100" height="100">
  <defs>
    <style>.cls-1{fill:#cdcdcd;}</style>
  </defs>
  <path class="cls-1" d="M 50.003 100 L 69.987 100 C 69.98 83.421 83.421 69.98 100 69.987 L 100 50.003 C 72.388 50.003 50.003 72.388 50.003 100 Z" style=""></path>
  <path class="cls-1" d="M 100 80.003 C 88.956 80.003 80.003 88.956 80.003 100 L 100 100 L 100 80.003 Z" style=""></path>
  <path class="cls-1" d="M 97.167 0.041 L 96.589 0.041 C 95.808 0.041 95.026 0.102 94.252 0.149 L 93.81 0.149 C 92.961 0.204 92.118 0.265 91.275 0.333 L 91.065 0.333 C 90.134 0.414 89.203 0.51 88.279 0.618 L 86.573 21.057 C 81.669 21.886 76.852 23.173 72.189 24.903 L 60.474 8.113 C 59.611 8.487 58.748 8.874 57.899 9.268 L 57.661 9.377 C 56.853 9.757 56.051 10.145 55.249 10.546 L 55.066 10.634 C 53.331 11.508 51.63 12.428 49.963 13.393 L 49.915 13.393 C 49.154 13.834 48.393 14.29 47.646 14.752 L 47.075 15.112 C 46.49 15.472 45.92 15.839 45.342 16.213 L 44.663 16.668 C 44.112 17.035 43.569 17.408 43.025 17.789 L 42.386 18.231 C 41.653 18.747 40.925 19.277 40.205 19.814 L 48.923 38.418 C 45.105 41.589 41.589 45.105 38.418 48.923 L 19.855 40.192 C 19.318 40.912 18.788 41.639 18.271 42.373 L 17.83 43.011 C 17.449 43.555 17.075 44.099 16.709 44.649 L 16.253 45.329 C 15.882 45.908 15.515 46.486 15.153 47.061 L 14.792 47.632 C 14.33 48.379 13.875 49.14 13.433 49.901 L 13.433 49.949 C 12.469 51.621 11.551 53.346 10.675 55.052 L 10.586 55.235 C 10.186 56.037 9.798 56.839 9.418 57.648 C 9.384 57.729 9.343 57.804 9.309 57.885 C 8.881 58.755 8.494 59.618 8.154 60.474 L 25.012 72.175 C 23.282 76.839 21.994 81.655 21.166 86.56 L 0.679 88.279 C 0.571 89.203 0.476 90.134 0.394 91.065 L 0.394 91.275 C 0.326 92.118 0.265 92.961 0.211 93.81 C 0.211 93.959 0.211 94.102 0.211 94.252 C 0.163 95.026 0.129 95.808 0.102 96.589 L 0.102 97.167 C 0.034 98.109 0 99.053 0 100 L 40.001 100 C 40.001 66.864 66.864 40.001 100 40.001 L 100 0 C 99.058 0 98.113 0.014 97.167 0.041 Z" style=""></path>
</svg>