<svg width="32" height="32" viewBox="0 0 32 32" fill="none" xmlns="http://www.w3.org/2000/svg">
<path d="M16 0C7.164 0 0 7.164 0 16C0 24.836 7.164 32 16 32C24.836 32 32 24.836 32 16C32 7.164 24.836 0 16 0ZM13.3333 21.3333H10.6667V13.3333H13.3333V21.3333ZM12 12.1453C11.1907 12.1453 10.5333 11.484 10.5333 10.6667C10.5333 9.85067 11.1893 9.188 12 9.188C12.8107 9.188 13.4667 9.85067 13.4667 10.6667C13.4667 11.484 12.8093 12.1453 12 12.1453ZM22.6667 21.3333H20.0027V17.5187C20.0027 15.0107 17.3333 15.2227 17.3333 17.5187V21.3333H14.6667V13.3333H17.3333V14.7907C18.496 12.636 22.6667 12.476 22.6667 16.8547V21.3333Z" fill="#2E2B26"/>
</svg>
