<svg width="32" height="32" viewBox="0 0 32 32" fill="none" xmlns="http://www.w3.org/2000/svg">
<circle cx="16" cy="16" r="16" fill="#2E2E2E"/>
<path d="M26.54 10.67C26.4157 10.2019 26.1706 9.77468 25.8293 9.43113C25.4879 9.08758 25.0623 8.83976 24.595 8.7125C22.875 8.25 16 8.25 16 8.25C16 8.25 9.125 8.25 7.405 8.7125C6.93771 8.83976 6.51207 9.08758 6.17071 9.43113C5.82935 9.77468 5.58426 10.2019 5.46 10.67C5 12.3975 5 16 5 16C5 16 5 19.6025 5.46 21.33C5.58426 21.7981 5.82935 22.2253 6.17071 22.5689C6.51207 22.9124 6.93771 23.1602 7.405 23.2875C9.125 23.75 16 23.75 16 23.75C16 23.75 22.875 23.75 24.595 23.2875C25.0623 23.1602 25.4879 22.9124 25.8293 22.5689C26.1706 22.2253 26.4157 21.7981 26.54 21.33C27 19.6025 27 16 27 16C27 16 27 12.3975 26.54 10.67Z" fill="white"/>
<path d="M13.75 19.271L19.5 15.9998L13.75 12.7285V19.271Z" fill="#2E2E2E"/>
</svg>
